<?xml version="1.0" encoding="UTF-8" standalone="no"?>
<svg
   xmlns:dc="http://purl.org/dc/elements/1.1/"
   xmlns:cc="http://creativecommons.org/ns#"
   xmlns:rdf="http://www.w3.org/1999/02/22-rdf-syntax-ns#"
   xmlns:svg="http://www.w3.org/2000/svg"
   xmlns="http://www.w3.org/2000/svg"
   xmlns:sodipodi="http://sodipodi.sourceforge.net/DTD/sodipodi-0.dtd"
   xmlns:inkscape="http://www.inkscape.org/namespaces/inkscape"
   width="24.716051mm"
   height="16.997095mm"
   viewBox="0 0 24.716051 16.997095"
   version="1.1"
   id="svg290"
   inkscape:version="1.0.2 (e86c870879, 2021-01-15)"
   sodipodi:docname="logo.svg">
  <defs
     id="defs284" />
  <sodipodi:namedview
     id="base"
     pagecolor="#ffffff"
     bordercolor="#666666"
     borderopacity="1.0"
     inkscape:pageopacity="0.0"
     inkscape:pageshadow="2"
     inkscape:zoom="6.1859883"
     inkscape:cx="14.295539"
     inkscape:cy="32.120495"
     inkscape:document-units="mm"
     inkscape:current-layer="layer1"
     inkscape:document-rotation="0"
     showgrid="false"
     fit-margin-top="0"
     fit-margin-left="0"
     fit-margin-right="0"
     fit-margin-bottom="0"
     inkscape:window-width="1494"
     inkscape:window-height="778"
     inkscape:window-x="19"
     inkscape:window-y="13"
     inkscape:window-maximized="0" />
  <metadata
     id="metadata287">
    <rdf:RDF>
      <cc:Work
         rdf:about="">
        <dc:format>image/svg+xml</dc:format>
        <dc:type
           rdf:resource="http://purl.org/dc/dcmitype/StillImage" />
        <dc:title></dc:title>
      </cc:Work>
    </rdf:RDF>
  </metadata>
  <g
     inkscape:label="Layer 1"
     inkscape:groupmode="layer"
     id="layer1"
     transform="translate(-87.427688,-139.66812)">
    <g
       id="g252"
       transform="matrix(0.26458333,0,0,0.26458333,86.55668,134.93737)"
       inkscape:export-xdpi="154.14999"
       inkscape:export-ydpi="154.14999">
      <g
         id="g244">
        <path
           d="m 84.88,36.3 c 4.414,0 7.995,-3.581 7.995,-7.995 0,-4.418 -3.581,-7.999 -7.995,-7.999 -4.418,0 -7.999,3.581 -7.999,7.999 0,4.414 3.581,7.995 7.999,7.995 z"
           id="path238" />
        <path
           d="M 92.875,46.715 H 81.158 L 77.619,38.202 C 77.47,37.84 77.265,37.501 77.012,37.203 l -0.237,-0.28 -7.917,-9.396 -6.983,-8.285 C 61.147,18.378 60.076,17.88 58.945,17.88 H 43.809 c -2.117,0 -3.833,1.715 -3.833,3.834 0,2.115 1.716,3.831 3.833,3.831 h 13.352 l 4.233,5.025 -16.735,15.817 c -0.389,0.264 -0.756,0.567 -1.091,0.92 -2.476,2.617 -2.363,6.749 0.253,9.224 L 56.797,68.81 39.956,72.847 c -2.086,0.499 -3.372,2.597 -2.871,4.683 0.5,2.086 2.595,3.372 4.682,2.87 L 65.55,74.702 c 0.444,-0.108 0.888,-0.298 1.285,-0.571 1.762,-1.208 2.211,-3.616 1.004,-5.378 l -0.241,-0.352 -9.823,-14.328 14.042,-9.858 3.244,7.806 c 0.596,1.431 1.99,2.362 3.541,2.362 h 14.273 c 2.117,0 3.832,-1.717 3.832,-3.833 0,-2.116 -1.715,-3.835 -3.832,-3.835 z"
           id="path240" />
        <path
           d="M 40.578,59.957 C 38.559,58.045 37.352,55.508 37.119,52.759 L 11.484,74.757 c -1.676,1.444 -1.956,3.972 -0.585,5.74 1.416,1.829 4.045,2.163 5.873,0.747 l 25.47,-19.711 z"
           id="path242" />
      </g>
      <path
         d="m 46.06,34.787 c 0,1.338 -1.083,2.422 -2.422,2.422 H 23.884 c -1.339,0 -2.423,-1.084 -2.423,-2.422 v 0 c 0,-1.34 1.084,-2.424 2.423,-2.424 h 19.753 c 1.34,0 2.423,1.084 2.423,2.424 z"
         id="path246" />
      <path
         d="m 36.976,43.871 c 0,1.338 -1.084,2.422 -2.423,2.422 H 14.8 c -1.339,0 -2.423,-1.084 -2.423,-2.422 v 0 c 0,-1.34 1.084,-2.423 2.423,-2.423 h 19.753 c 1.339,-10e-4 2.423,1.083 2.423,2.423 z"
         id="path248" />
      <path
         d="m 27.892,52.956 c 0,1.338 -1.084,2.422 -2.423,2.422 H 5.715 c -1.338,0 -2.423,-1.084 -2.423,-2.422 v 0 c 0,-1.341 1.084,-2.425 2.423,-2.425 h 19.753 c 1.339,0 2.424,1.084 2.424,2.425 z"
         id="path250" />
    </g>
  </g>
</svg>
