<svg xmlns="http://www.w3.org/2000/svg" xmlns:xlink="http://www.w3.org/1999/xlink" version="1.1" x="0px" y="0px" viewBox="0 0 100 125" enable-background="new 0 0 100 100" xml:space="preserve"><path fill-rule="evenodd" clip-rule="evenodd" fill="#000000" d="M90.662,39.78c-0.611-0.198-0.996-0.404-1.273-1.039  c-0.896-2.033-2.928-3.607-5.076-4.596c0.387,0.354,0.605,0.756,0.625,0.967c-1.012-0.613-2.557-1.257-3.832-1.012  c0.631,0.271,1.275,0.625,1.387,1.137c-1.398-0.416-3.717-0.19-4.49,0.325c0.902,0.064,1.416,0.257,1.619,0.641  c-1.168,0.39-2.584,1.13-2.895,1.9c1.115-0.287,1.533-0.19,2.428,0.111c-1.248,0.535-2.408,1.276-3.441,2.604  c1.098-0.201,1.484-0.33,2.57,0.286c-0.557,0.56-1.053,1.208-1.684,1.667c-1.41,1.022-3.094,1.273-4.777,1.343  c-7.129,0.299-11.076,0.527-25.397,3.239v-0.001c-8.904-0.69-27.84-2.075-28.519-2.114C18.539,45.977,19,46.52,19.582,47.2  c-1.779-0.064-5.027-0.183-5.642-0.198c1.909,1.188,3.847,3.728,6.812,3.099c-0.541,0.614-0.866,0.982-1.335,1.517  c2.178-0.065,4.136-0.122,6.176-0.183c-0.274,0.464-0.473,0.798-0.771,1.3c2.139-0.191,4.087-0.362,6.179-0.548  c-0.391,0.456-0.654,0.765-1.083,1.262c4.246-0.497,10.34-1.207,14.466-1.692l0.001-0.002c1.318,0.556,2.71,0.971,4.156,1.377  c-0.775,0.221-1.624,0.537-2.168,0.692c0.309,0.104,0,0,0.309,0.104c1.061,0.282,2.119,0.562,3.175,0.842  c-1.041,0.399,0,0-3.063,1.236l0.554,0.161c-3.803,2.161-7.639,4.27-11.476,6.38c-0.771,0.426-1.503,0.943-2.373,1.203  c-0.081-0.324,0.899-1.505,1.026-2.038c0.069-0.297,0.113-0.64-0.139-0.841c-0.333-0.263-0.769,0.093-0.949,0.295  c-1.151,1.28-3.361,3.047-4.463,2.987c-0.66-0.036-1.325-0.014-1.989-0.015c-0.301-0.003-0.52,0.118-0.557,0.44  c-0.038,0.292,0.084,0.53,0.359,0.64c0.215,0.084,3.969,0.54,5.616,0.72c0.542,0.061,1.041-0.059,1.535-0.302  c3.301-1.634,6.685-3.121,9.888-4.921c2.292-1.289,6.489-2.745,8.98-1.228c0.654,0.398,2.027-0.209,2.625-0.964l3.281,0.958  c0.223,0.622,0.434,1.248,0.611,1.883c0.27,0.983,0.766,1.285,1.795,1.197c5.254-0.443,10.51-0.817,15.768-1.203  c0.332-0.024,0.703-0.195,1.035,0.128c-0.361,0.437-2.197,1.585-1.959,2.097c0.266,0.577,0.791,0.102,1.107-0.049  c2.283-1.096,4.521-1.471,6.744,0.134c0.271,0.192,0.631,0.32,0.875-0.063c0.232-0.367,0.141-0.729-0.221-0.948  c-1.672-1.013-3.354-2.011-5.039-3.001c-0.357-0.209-0.77-0.155-1.168-0.145c-4.541,0.121-9.08,0.219-13.619,0.369  c-0.781,0.025-1.238-0.193-1.459-0.894c2.994-0.648,5.768-1.795,8.145-3.72c2.385-1.931,4.693-3.959,6.934-6.053  c3.721-3.474,8.053-5.253,13.125-5.949c2.168-0.298,3.842-0.523,6.805-0.266C97.66,42.625,92.609,40.419,90.662,39.78z"/><path fill-rule="evenodd" clip-rule="evenodd" fill="#000000" d="M72.238,37.068c1.223,0.098,2.268-0.098,3.393-0.782  c1.611-0.981,0.947-0.583,1.611-0.981l-22.68,0.925c4.043,0.166,8.09,0.304,12.135,0.482C68.547,36.791,70.395,36.921,72.238,37.068  z"/><path fill-rule="evenodd" clip-rule="evenodd" fill="#000000" d="M67.512,39.725c1.223,0.097,2.268-0.1,3.391-0.783  c1.613-0.981,0.949-0.583,1.613-0.981l-22.68,0.925c4.043,0.167,8.09,0.306,12.133,0.482C63.82,39.449,65.666,39.578,67.512,39.725z  "/><path fill-rule="evenodd" clip-rule="evenodd" fill="#000000" d="M29.219,60.091L6.538,61.017c4.046,0.167,8.092,0.306,12.136,0.48  c1.85,0.081,3.698,0.21,5.543,0.357c1.224,0.099,2.265-0.098,3.392-0.78C29.219,60.091,28.555,60.49,29.219,60.091z"/><path fill-rule="evenodd" clip-rule="evenodd" fill="#000000" d="M13.946,64.155c1.851,0.08,3.698,0.21,5.544,0.356  c1.224,0.1,2.265-0.099,3.39-0.781c1.611-0.98,0.945-0.584,1.611-0.98l-22.68,0.923C5.855,63.841,9.902,63.979,13.946,64.155z"/><text x="0" y="115" fill="#000000" font-size="5px" font-weight="bold" font-family="'Helvetica Neue', Helvetica, Arial-Unicode, Arial, Sans-serif">Created by Rafael Garcia Motta</text><text x="0" y="120" fill="#000000" font-size="5px" font-weight="bold" font-family="'Helvetica Neue', Helvetica, Arial-Unicode, Arial, Sans-serif">from the Noun Project</text></svg>