<svg xmlns="http://www.w3.org/2000/svg" xmlns:xlink="http://www.w3.org/1999/xlink" version="1.1" x="0px" y="0px" viewBox="0 0 100 125" enable-background="new 0 0 100 100" xml:space="preserve"><g><g><path d="M84.88,36.3c4.414,0,7.995-3.581,7.995-7.995c0-4.418-3.581-7.999-7.995-7.999c-4.418,0-7.999,3.581-7.999,7.999    C76.881,32.719,80.462,36.3,84.88,36.3z"/><path d="M92.875,46.715H81.158l-3.539-8.513c-0.149-0.362-0.354-0.701-0.607-0.999l-0.237-0.28l-7.917-9.396l-6.983-8.285    c-0.728-0.864-1.799-1.362-2.93-1.362H43.809c-2.117,0-3.833,1.715-3.833,3.834c0,2.115,1.716,3.831,3.833,3.831h13.352    l4.233,5.025L44.659,46.387c-0.389,0.264-0.756,0.567-1.091,0.92c-2.476,2.617-2.363,6.749,0.253,9.224l12.976,12.279    l-16.841,4.037c-2.086,0.499-3.372,2.597-2.871,4.683c0.5,2.086,2.595,3.372,4.682,2.87l23.783-5.698    c0.444-0.108,0.888-0.298,1.285-0.571c1.762-1.208,2.211-3.616,1.004-5.378l-0.241-0.352l-9.823-14.328l14.042-9.858l3.244,7.806    c0.596,1.431,1.99,2.362,3.541,2.362h14.273c2.117,0,3.832-1.717,3.832-3.833S94.992,46.715,92.875,46.715z"/><path d="M40.578,59.957c-2.019-1.912-3.226-4.449-3.459-7.198L11.484,74.757c-1.676,1.444-1.956,3.972-0.585,5.74    c1.416,1.829,4.045,2.163,5.873,0.747l25.47-19.711L40.578,59.957z"/></g><path d="M46.06,34.787c0,1.338-1.083,2.422-2.422,2.422H23.884c-1.339,0-2.423-1.084-2.423-2.422l0,0   c0-1.34,1.084-2.424,2.423-2.424h19.753C44.977,32.363,46.06,33.447,46.06,34.787L46.06,34.787z"/><path d="M36.976,43.871c0,1.338-1.084,2.422-2.423,2.422H14.8c-1.339,0-2.423-1.084-2.423-2.422l0,0   c0-1.34,1.084-2.423,2.423-2.423h19.753C35.892,41.447,36.976,42.531,36.976,43.871L36.976,43.871z"/><path d="M27.892,52.956c0,1.338-1.084,2.422-2.423,2.422H5.715c-1.338,0-2.423-1.084-2.423-2.422l0,0   c0-1.341,1.084-2.425,2.423-2.425h19.753C26.807,50.531,27.892,51.615,27.892,52.956L27.892,52.956z"/></g><text x="0" y="115" fill="#000000" font-size="5px" font-weight="bold" font-family="'Helvetica Neue', Helvetica, Arial-Unicode, Arial, Sans-serif">Created by Diego Naive</text><text x="0" y="120" fill="#000000" font-size="5px" font-weight="bold" font-family="'Helvetica Neue', Helvetica, Arial-Unicode, Arial, Sans-serif">from the Noun Project</text></svg>